<?xml version="1.0" encoding="utf-8"?>
<!-- Generator: Adobe Illustrator 26.0.2, SVG Export Plug-In . SVG Version: 6.00 Build 0)  -->
<svg version="1.1" id="レイヤー_1" xmlns="http://www.w3.org/2000/svg" xmlns:xlink="http://www.w3.org/1999/xlink" x="0px"
	 y="0px" viewBox="0 0 180 180" style="enable-background:new 0 0 180 180;" xml:space="preserve">
<style type="text/css">
	.st0{fill:#3B240C;}
</style>
<path class="st0" d="M138.6,87.9c15.3-1.4,22.9-7.6,22.9-18.1V57.5c0-7.3-2.3-12.6-7-15.7c-4.7-3.3-12.1-4.8-22.3-4.8H23
	c0,0-2.8,0-2.8,2.8c0,2.5,0,84.2,0,100.5c0,0-0.1,2.8,2.7,2.8c2.8,0,100.9,0,100.9,0c25.6,0,38.5-6.9,38.5-20.7v-13.6
	C162.4,96.4,154.5,89.5,138.6,87.9z M43.4,53.9c0-2.8,2.8-2.9,2.8-2.9h77.6c5.1,0,8.7,0.7,11,1.8c2.2,1.3,3.4,3.7,3.4,7.4v10.7
	c0,6.3-4.8,9.4-14.4,9.4H46.2c-2.8,0-2.8-2.9-2.8-2.9V53.9z M139.2,115.9c0,4.9-1.1,8.1-3.4,9.9c-2.3,1.9-6.2,2.7-12,2.7H46.2
	c-2.8,0-2.8-2.9-2.8-2.9V97.2c0-2.8,2.8-2.9,2.8-2.9h77.6c5.8,0,9.7,0.9,12,2.6c2.2,1.9,3.4,5.1,3.4,10.2V115.9z"/>
</svg>
